<svg width="20" height="20" viewBox="0 0 20 20" fill="none" xmlns="http://www.w3.org/2000/svg">
<path fill-rule="evenodd" clip-rule="evenodd" d="M13.3075 0.807503C13.3656 0.749299 13.4345 0.703121 13.5105 0.671613C13.5864 0.640105 13.6678 0.623886 13.75 0.623886C13.8322 0.623886 13.9136 0.640105 13.9895 0.671613C14.0655 0.703121 14.1344 0.749299 14.1925 0.807503L19.1925 5.8075C19.2507 5.86556 19.2969 5.93453 19.3284 6.01046C19.3599 6.08639 19.3761 6.16779 19.3761 6.25C19.3761 6.33221 19.3599 6.41361 19.3284 6.48955C19.2969 6.56548 19.2507 6.63445 19.1925 6.6925L16.815 9.07L15.7788 13.2113C15.7 13.5266 15.5405 13.816 15.3161 14.0512C15.0917 14.2863 14.8101 14.4591 14.4988 14.5525L1.5675 18.4325L5.4475 5.5C5.54103 5.18908 5.71369 4.90777 5.94858 4.68361C6.18347 4.45946 6.47255 4.30014 6.7875 4.22125L10.9288 3.18625L13.3075 0.807503ZM11.0575 4.4425L7.09125 5.43375C6.98597 5.46003 6.88934 5.51327 6.81088 5.58823C6.73241 5.66318 6.67482 5.75728 6.64375 5.86125L3.43125 16.5675L14.14 13.355C14.2434 13.3237 14.3368 13.2661 14.4113 13.1879C14.4858 13.1097 14.5388 13.0135 14.565 12.9088L15.5575 8.94125L11.0575 4.44125V4.4425Z" fill="#6CBFFC"/>
<path fill-rule="evenodd" clip-rule="evenodd" d="M3.54 16.535L9.99999 11.25C10.2472 11.25 10.4889 11.1767 10.6945 11.0393C10.9 10.902 11.0602 10.7068 11.1548 10.4784C11.2495 10.2499 11.2742 9.99861 11.226 9.75614C11.1777 9.51366 11.0587 9.29093 10.8839 9.11612C10.7091 8.9413 10.4863 8.82225 10.2439 8.77402C10.0014 8.72579 9.75005 8.75054 9.52164 8.84515C9.29323 8.93976 9.09801 9.09998 8.96066 9.30554C8.82331 9.5111 8.74999 9.75277 8.74999 10L3.465 16.46L3.4325 16.5675L3.54 16.535Z" fill="#6CBFFC"/>
</svg>
