<svg width="35" height="35" viewBox="0 0 35 35" fill="none" xmlns="http://www.w3.org/2000/svg">
<path d="M32.8015 25.3805C31.839 24.5137 30.0398 22.8867 25.4133 21.7793C24.2484 21.5004 21.7765 20.8441 17.6914 20.8277C14.9734 20.8168 11.0933 20.9918 7.80116 21.9078C6.33006 22.318 6.62264 22.7582 7.67538 22.5668C9.27225 22.277 10.4562 22.3016 12.0668 22.3344C12.6519 22.3453 14.3281 22.4547 15.6898 22.7555C16.893 23.0234 17.809 23.4719 18.0961 23.7426C18.3094 23.9449 18.9191 24.5273 18.7824 25.0441C18.5773 25.8152 16.9285 25.6293 16.6113 26.5863C16.491 26.9473 16.6277 27.2754 16.6551 27.3383C16.8656 27.8141 17.418 28.0301 18.5062 28.2434C22.1676 28.968 20.5242 28.8039 22.05 28.9269C25.8371 29.2359 27.2316 29.0582 29.2387 29.9059C30.3953 30.3953 30.6469 30.7535 30.6715 31.0516C30.6906 31.2566 30.6441 31.9539 28.2871 33.0203C27.9754 33.1625 28.6535 33.8652 31.4726 32.375C32.9328 31.3961 34.2371 29.9824 34.2672 28.2488C34.289 27.0703 33.6875 26.1789 32.8015 25.3805Z" fill="#3FBFE7"/>
<path d="M30.6715 31.057C30.6441 30.7617 30.5594 30.4609 29.4602 29.9578C27.9262 29.2578 25.9711 29.143 22.1867 28.8039C20.1414 28.6207 20.1824 28.5742 18.5035 28.2461C17.418 28.0328 16.8629 27.8168 16.6523 27.341C16.625 27.2781 16.4883 26.95 16.6086 26.5891C16.9258 25.632 18.5773 25.818 18.7797 25.0469C18.9164 24.5301 18.3066 23.9477 18.0934 23.7453C17.8062 23.4719 16.8902 23.0262 15.6871 22.7582C14.3254 22.4547 12.6465 22.3481 12.0641 22.3371C10.2566 22.2988 9.16836 22.2824 7.67266 22.5695C7.67266 22.5695 3.81719 23.3078 1.56133 25.4762C1.03086 26.0449 0.538671 26.7695 0.497655 27.7211C0.497655 27.7348 0.497655 27.7512 0.494921 27.7703C0.494921 27.7703 0.467577 28.8586 1.27969 29.9961C3.08984 32.5336 9.17656 33.7887 9.17656 33.7887C13.0539 34.5871 16.0152 34.6363 18.4926 34.6664C21.4566 34.6992 24.4207 34.5242 27.3438 33.4141C27.6555 33.2965 27.9699 33.1707 28.2816 33.0285C30.6441 31.9594 30.6906 31.2621 30.6715 31.057Z" fill="#F7C977"/>
<path d="M24.8937 26.8133C25.1726 27.3957 27.1058 27.6719 27.0047 28.3117C26.9035 28.9516 24.9894 28.618 24.5328 29.0746C24.0734 29.5313 24.3988 31.4453 23.7617 31.5465C23.1219 31.6449 22.8457 29.7254 22.2715 29.4301C21.6945 29.1348 19.9773 30.0371 19.6848 29.4602C19.3922 28.8832 21.134 28.0273 21.2351 27.3875C21.3363 26.7477 19.95 25.3941 20.4094 24.9348C20.866 24.4781 22.2168 25.8563 22.8594 25.7688C23.5156 25.6813 24.4754 23.9586 25.0523 24.284C25.5965 24.5984 24.6203 26.2418 24.8937 26.8133Z" fill="#F79329"/>
<path d="M11.3149 25.6949C11.2492 25.6813 11.1836 25.6621 11.1207 25.632C10.9153 25.5387 10.7553 25.3676 10.6758 25.1564C10.5964 24.9452 10.604 24.7111 10.6969 24.5055L15.9059 12.9746C15.9995 12.7694 16.1706 12.6096 16.3817 12.5302C16.5928 12.4507 16.8268 12.4581 17.0324 12.5508C17.459 12.7449 17.6504 13.248 17.4563 13.6773L12.2473 25.2109C12.1683 25.3842 12.0335 25.526 11.8645 25.6137C11.6955 25.7014 11.502 25.73 11.3149 25.6949Z" fill="#78A3AD"/>
<path d="M21.6781 4.99844L21.6125 4.96836C21.6371 4.9793 21.6617 4.99297 21.6863 5.00391L21.6781 4.99844Z" fill="white"/>
<path d="M20.959 5.26094C21.5305 7.11485 22.75 12.5289 20.3383 19.5781C20.341 19.5672 20.3465 19.5563 20.3492 19.5453C24.6231 18.4406 27.3328 20.7512 27.3875 20.7977C28.3555 12.3156 22.7227 6.41485 21.1285 4.93282L21.0602 5.09688C21.0356 5.1625 21 5.21446 20.959 5.26094Z" fill="white"/>
<path d="M20.0293 4.67305L20.0813 4.55C17.9293 4.55274 10.7516 5.0668 6.06485 11.4406C6.19337 11.4543 9.62774 12.1598 11.9684 15.4957L11.9602 15.5176C14.6563 9.20938 18.4488 6.08946 20.0047 5.01485C19.9774 4.90547 19.9828 4.78789 20.0293 4.67305Z" fill="white"/>
<path d="M21.6863 5.00391C21.6617 4.99297 21.6371 4.9793 21.6125 4.96836C21.473 4.90274 21.3363 4.83985 21.1941 4.77696L21.1285 4.93555C22.7226 6.41758 28.3555 12.3156 27.3875 20.8004C27.3328 20.7512 24.623 18.4434 20.3492 19.548C20.3465 19.559 20.341 19.5699 20.3383 19.5809C22.75 12.5289 21.5305 7.11758 20.959 5.26368C20.8387 5.39493 20.6609 5.46329 20.4832 5.44415C20.3689 5.43192 20.2612 5.38422 20.1754 5.30771C20.0896 5.23121 20.0299 5.12975 20.0047 5.01758C18.4488 6.09219 14.6562 9.21211 11.9601 15.5203L11.9683 15.4984C9.62499 12.1625 6.19335 11.457 6.06483 11.4406C10.7515 5.0668 17.9293 4.55274 20.0812 4.55L20.166 4.34766C13.0074 1.59141 5.55077 3.08985 1.3453 7.67266C1.06913 7.97344 1.12928 8.46836 1.46561 8.67071C2.49374 9.29415 4.44882 10.6641 5.34296 12.5426C5.37303 12.5535 9.83553 14.0547 11.3285 17.1309C11.364 17.1336 16.409 17.3797 19.9582 20.6199C19.9582 20.6227 19.9555 20.6254 19.9555 20.6254C19.9555 20.6254 23.9969 19.507 27.2098 21.9981C27.218 21.957 27.2234 21.9188 27.2289 21.8805L27.2125 21.9898C27.2125 21.9898 29.6871 20.5789 32.1754 21.4402C32.498 21.5523 32.8344 21.2789 32.8316 20.9125C32.7906 14.6344 28.4894 8.24141 21.6863 5.00391Z" fill="#196CA2"/>
<path d="M20.0812 4.55273L20.0293 4.67578C19.9828 4.78789 19.9773 4.90547 20.0019 5.01758C20.043 5.18711 20.1578 5.33477 20.3301 5.40586C20.3793 5.425 20.4285 5.43867 20.4805 5.44414C20.6009 5.45665 20.7222 5.43021 20.8266 5.36869C20.9309 5.30717 21.0128 5.21382 21.0601 5.10234L21.1285 4.93828L21.1941 4.77969L21.8422 3.21016C21.9598 2.92578 21.8258 2.59766 21.5387 2.48008C21.2543 2.3625 20.9289 2.49922 20.8086 2.78359L20.1605 4.35039L20.0812 4.55273Z" fill="#78A3AD"/>
</svg>
